HIERARCHY
ROOT Hips
{
	OFFSET 0.00000 0.00000 0.00000
	CHANNELS 6 Xposition Yposition Zposition Zrotation Yrotation Xrotation 
	JOINT RightUpLegDummy
	{
		OFFSET 0 0 0
		CHANNELS 3 Zrotation Yrotation Xrotation
		JOINT RightUpLeg
		{
			OFFSET -3.52197 -3.41223 0.04002
			CHANNELS 3 Zrotation Yrotation Xrotation
			JOINT RightLeg
			{
				OFFSET 0.00006 -17.42390 1.60435
				CHANNELS 3 Zrotation Yrotation Xrotation
				JOINT RightFoot
				{
					OFFSET 0.06154 -16.50078 -1.63900
					CHANNELS 3 Zrotation Yrotation Xrotation
					JOINT RightToes
					{
						OFFSET 0.00298 -1.73825 3.34613
						CHANNELS 3 Zrotation Yrotation Xrotation
						End Site
						{
							OFFSET 0.00480 -0.05416 3.85043
						}
					}
				}
			}
		}
	}
	JOINT SpineDummy
	{
		OFFSET 0 0 0
		CHANNELS 3 Zrotation Yrotation Xrotation
		JOINT Spine
		{
			OFFSET 0.00000 4.68130 0.00000
			CHANNELS 3 Zrotation Yrotation Xrotation
			JOINT Spine1
			{
				OFFSET -0.00000 10.10138 0.05002
				CHANNELS 3 Zrotation Yrotation Xrotation
				JOINT HEadDummy
				{
					OFFSET 0 0 0
					CHANNELS 3 Zrotation Yrotation Xrotation
					JOINT Head
					{
						OFFSET -0.00000 3.43865 0.00438
						CHANNELS 3 Zrotation Yrotation Xrotation
						End Site
						{
							OFFSET -0.11417 5.02924 0.98962
						}
					}
				}
				JOINT LeftShoulder1Dummy
				{
					OFFSET 0 0 0
					CHANNELS 3 Zrotation Yrotation Xrotation
					JOINT LeftShoulder1
					{
						OFFSET 3.53937 -0.14262 -0.08662
						CHANNELS 3 Zrotation Yrotation Xrotation
						JOINT LeftArm
						{
							OFFSET 4.04833 -0.00133 0.12681
							CHANNELS 3 Zrotation Yrotation Xrotation
							JOINT LeftForeArm
							{
								OFFSET 10.33880 -0.01036 -0.55515
								CHANNELS 3 Zrotation Yrotation Xrotation
								JOINT LeftHand
								{
									OFFSET 8.69677 0.07543 0.40060
									CHANNELS 3 Zrotation Yrotation Xrotation
									End Site
									{
										OFFSET 5.28377 -0.21905 0.59205
									}
								}
							}
						}
					}
				}
				JOINT RightShoulderDummy
				{
					OFFSET 0 0 0
					CHANNELS 3 Zrotation Yrotation Xrotation
					JOINT RightShoulder
					{
						OFFSET -3.53937 -0.14262 -0.08660
						CHANNELS 3 Zrotation Yrotation Xrotation
						JOINT RightArm
						{
							OFFSET -4.04833 -0.00133 0.12683
							CHANNELS 3 Zrotation Yrotation Xrotation
							JOINT RightForeArm
							{
								OFFSET -10.37987 -0.01039 -0.55511
								CHANNELS 3 Zrotation Yrotation Xrotation
								JOINT RightHand
								{
									OFFSET -8.67398 0.07538 0.40058
									CHANNELS 3 Zrotation Yrotation Xrotation
									End Site
									{
										OFFSET -5.24810 -0.21916 0.59204
									}
								}
							}
						}
					}
				}
			}
		}
	}
	JOINT LeftUpLegDummy
	{
		OFFSET 0 0 0
		CHANNELS 3 Zrotation Yrotation Xrotation
		JOINT LeftUpLeg
		{
			OFFSET 3.52197 -3.41223 0.04002
			CHANNELS 3 Zrotation Yrotation Xrotation
			JOINT LeftLeg
			{
				OFFSET -0.00012 -17.42399 1.60337
				CHANNELS 3 Zrotation Yrotation Xrotation
				JOINT LeftFoot
				{
					OFFSET -0.09972 -16.50070 -1.63802
					CHANNELS 3 Zrotation Yrotation Xrotation
					JOINT LeftToes
					{
						OFFSET -0.01575 -1.73823 3.34611
						CHANNELS 3 Zrotation Yrotation Xrotation
						End Site
						{
							OFFSET 0.03150 -0.01868 3.85031
						}
					}
				}
			}
		}
	}
}
MOTION
Frames: 19
Frame Time: 0.033333
-9.5490 37.8646 18.9636 176.5220 45.2123 179.1680 0.0000 0.0000 0.0000 -5.9091 -7.2076 -24.9398 -3.9903 -4.3124 35.3877 11.8875 -0.3818 -7.9694 0.0000 0.0000 -0.0000 0.0000 0.0000 0.0000 -3.3687 0.4305 16.4644 -6.0131 2.0086 16.9532 0.0000 0.0000 0.0000 -15.5296 34.1661 -23.4585 0.0000 0.0000 0.0000 -13.5433 -3.4284 1.4240 -49.9171 -13.2231 24.9915 -27.9661 -88.7510 24.9671 26.3398 -3.5310 -2.0237 0.0000 0.0000 0.0000 8.9717 1.7896 0.8682 59.3806 6.4261 15.2192 178.8359 74.2352 -178.5397 -15.4213 4.6359 -1.3004 0.0000 0.0000 0.0000 4.3032 -4.0016 -13.5074 2.3263 2.2633 34.8572 -11.7881 -0.7001 -19.2279 -0.0000 0.0000 -0.0000
-9.6030 37.4235 18.9397 176.3500 46.9440 178.0390 0.0000 0.0000 0.0000 -5.9694 -6.5603 -25.6255 -3.5247 -3.4053 38.2105 11.1616 -0.1294 -10.4143 0.0000 0.0000 -0.0000 0.0000 0.0000 0.0000 -3.3562 0.7017 16.4170 -6.2378 2.4518 18.3457 0.0000 0.0000 0.0000 -16.6965 34.3399 -24.5945 0.0000 0.0000 0.0000 -16.0442 -4.6225 1.8524 -47.4566 -13.7161 21.7723 -7.4189 -85.2756 4.6730 27.4481 -3.2846 -2.0555 0.0000 0.0000 0.0000 10.4732 1.9684 0.9711 57.7987 9.0142 14.0170 178.7502 77.3000 -177.6082 -16.4744 4.9060 -1.4293 0.0000 0.0000 0.0000 3.8580 -2.8275 -13.2184 3.3025 3.1001 37.5034 -11.1963 -0.9243 -22.0764 -0.0000 0.0000 -0.0000
-9.6581 37.1514 18.9354 176.6330 47.9651 177.4430 0.0000 0.0000 0.0000 -5.7175 -6.1360 -25.8104 -3.2878 -2.9815 39.7974 10.5515 -0.0100 -11.6988 0.0000 0.0000 -0.0000 0.0000 0.0000 0.0000 -3.1153 0.6172 16.6995 -6.1535 2.4045 19.2681 0.0000 0.0000 0.0000 -17.9902 34.5961 -25.6055 0.0000 0.0000 0.0000 -18.1309 -5.4416 2.2095 -46.3952 -14.4324 18.8628 -3.5183 -80.4260 0.3965 29.8816 -2.7154 -2.1017 0.0000 0.0000 0.0000 11.7084 2.1278 1.0618 57.5361 10.7143 12.9008 178.7399 80.5419 -176.3700 -17.2926 5.1770 -1.5421 0.0000 0.0000 0.0000 4.0708 -2.2505 -13.0326 3.3689 2.9553 39.3803 -11.3875 -1.0918 -23.6726 -0.0000 0.0000 -0.0000
-9.6881 37.1150 18.9416 176.9280 48.9072 177.3820 0.0000 0.0000 0.0000 -5.4669 -5.2645 -25.7790 -3.2677 -2.9570 39.8618 10.3603 -0.0144 -11.6626 0.0000 0.0000 -0.0000 0.0000 0.0000 0.0000 -3.1100 0.4461 16.8515 -5.9939 2.1684 19.6060 0.0000 0.0000 0.0000 -19.0591 35.0155 -26.1643 0.0000 0.0000 0.0000 -19.4070 -5.4577 2.3199 -47.0376 -14.5590 16.6309 -3.6598 -77.7532 -4.0206 33.7062 -1.9925 -2.1788 0.0000 0.0000 0.0000 12.1447 2.1519 1.0888 58.7958 10.8892 12.3177 178.6951 82.5953 -175.7260 -18.1296 5.3642 -1.6481 0.0000 0.0000 0.0000 4.4429 -1.0567 -12.9044 2.8905 2.4168 39.9693 -11.7793 -1.1392 -23.7242 -0.0000 0.0000 -0.0000
-9.6810 37.3022 18.9365 176.8290 50.0347 177.6960 0.0000 0.0000 0.0000 -5.4628 -4.0386 -25.6099 -3.2589 -3.1189 38.3152 10.6499 -0.0737 -10.9934 0.0000 0.0000 -0.0000 0.0000 0.0000 0.0000 -3.4587 0.3395 16.3751 -5.8745 1.9755 19.7185 0.0000 0.0000 0.0000 -19.5602 35.5131 -26.0648 0.0000 0.0000 0.0000 -19.9685 -4.7396 2.1780 -48.6585 -13.7988 15.2521 -5.8569 -79.0673 -8.5452 36.5770 -1.7177 -2.2881 0.0000 0.0000 0.0000 12.1757 1.9952 1.0602 60.3230 9.5049 12.3575 178.6062 82.5804 -175.8176 -18.7839 5.4366 -1.7214 0.0000 0.0000 0.0000 4.4755 0.7705 -12.8066 2.4885 2.0896 39.1276 -11.8562 -1.0239 -22.4644 -0.0000 0.0000 -0.0000
-9.6487 37.6183 18.9119 176.4670 51.1670 178.3110 0.0000 0.0000 0.0000 -5.5987 -3.0741 -25.3292 -3.0780 -3.2277 35.6363 11.0657 -0.1514 -10.1702 0.0000 0.0000 -0.0000 0.0000 0.0000 0.0000 -3.7859 0.2488 15.3565 -5.8555 1.8641 19.7603 0.0000 0.0000 0.0000 -19.4646 35.9812 -25.3383 0.0000 0.0000 0.0000 -19.8187 -3.6185 1.8727 -50.5074 -12.7018 15.2285 -8.9997 -82.3136 -8.0239 35.8217 -1.9184 -2.3023 0.0000 0.0000 0.0000 12.1672 1.7033 1.0036 61.1035 7.0124 12.6890 178.8006 81.0900 -175.7385 -18.6582 5.4176 -1.7067 0.0000 0.0000 0.0000 4.2352 2.3563 -12.7328 2.2386 1.9745 37.2547 -11.8532 -0.8374 -20.5824 -0.0000 0.0000 -0.0000
-9.6025 37.9564 18.8715 176.2720 52.3289 179.1050 0.0000 0.0000 0.0000 -5.5866 -2.5052 -24.9170 -2.6808 -3.0963 32.6262 11.2664 -0.2490 -9.1639 0.0000 0.0000 -0.0000 0.0000 0.0000 0.0000 -3.7883 0.1636 14.2196 -5.9178 1.8403 19.6231 0.0000 0.0000 0.0000 -19.0159 36.4967 -24.1686 0.0000 0.0000 0.0000 -19.1062 -2.4630 1.5294 -52.1057 -11.9279 16.7902 -12.1289 -84.8225 -2.4690 32.3725 -2.1423 -2.1281 0.0000 0.0000 0.0000 12.0092 1.3741 0.9334 61.1571 4.1757 13.0607 179.0071 79.5101 -175.5704 -17.7580 5.3130 -1.6056 0.0000 0.0000 0.0000 4.1086 3.5136 -12.5026 2.0731 1.9565 35.0492 -12.2631 -0.6779 -18.6921 -0.0000 0.0000 -0.0000
-9.5426 38.2228 18.8149 176.4790 53.8609 179.8260 0.0000 0.0000 0.0000 -5.3248 -1.8755 -24.3754 -2.1279 -2.6317 30.1184 11.6470 -0.3352 -8.3666 0.0000 0.0000 -0.0000 0.0000 0.0000 0.0000 -3.6840 0.1890 13.2430 -5.8371 1.8843 19.3345 0.0000 0.0000 0.0000 -18.4233 37.2905 -22.7730 0.0000 0.0000 0.0000 -18.2363 -1.5956 1.2659 -53.2289 -11.4971 19.2320 -15.0529 -86.1805 2.8157 30.0241 -2.3898 -2.0283 0.0000 0.0000 0.0000 11.6090 1.1187 0.8678 60.8069 1.8293 13.6565 178.9850 78.7480 -175.9748 -16.8890 5.1766 -1.5044 0.0000 0.0000 0.0000 4.2804 4.6508 -11.9939 2.0906 2.1043 33.4195 -13.0720 -0.5699 -17.2119 -0.0000 0.0000 -0.0000
-9.4599 38.3477 18.7372 177.0980 55.8589 -179.6750 0.0000 0.0000 0.0000 -4.8715 -0.9795 -23.7917 -1.4720 -1.8162 28.7471 12.9314 -0.3471 -8.5461 0.0000 0.0000 -0.0000 0.0000 0.0000 0.0000 -3.8596 0.3156 12.3938 -5.3318 1.8434 19.0883 0.0000 0.0000 0.0000 -17.7725 38.5096 -21.3321 0.0000 0.0000 0.0000 -17.3584 -1.1199 1.1105 -54.1246 -11.1063 21.5140 -19.6022 -86.8698 5.8676 29.6658 -2.4965 -2.0304 0.0000 0.0000 0.0000 11.1027 1.0153 0.8277 60.2027 0.5740 14.6902 178.6808 79.0484 -177.3634 -16.7077 5.0630 -1.4720 0.0000 0.0000 0.0000 4.7426 5.6706 -11.3166 2.3015 2.3924 33.1001 -13.9538 -0.5320 -16.4910 -0.0000 0.0000 -0.0000
-9.3488 38.2919 18.6340 178.1240 58.0709 -179.3840 0.0000 0.0000 0.0000 -4.2309 -0.1161 -23.3273 -0.6616 -0.6322 28.9268 14.7618 -0.2472 -9.7089 0.0000 0.0000 -0.0000 0.0000 0.0000 0.0000 -4.2895 0.3817 11.5512 -4.4483 1.5819 19.0469 0.0000 0.0000 0.0000 -17.1818 40.0696 -19.9203 0.0000 0.0000 0.0000 -16.4848 -0.8855 1.0189 -55.0467 -11.0276 23.0868 -17.4373 -85.9658 0.2380 28.7664 -2.2931 -1.9171 0.0000 0.0000 0.0000 10.6515 1.0464 0.8149 59.4780 0.6157 15.8993 177.9152 80.5982 -179.8877 -17.0981 4.9533 -1.4925 0.0000 0.0000 0.0000 5.4681 6.1497 -10.5752 2.6536 2.7065 34.3084 -14.8344 -0.6080 -16.7772 -0.0000 0.0000 -0.0000
-9.2100 38.0762 18.5018 179.3680 60.3233 -179.4960 0.0000 0.0000 0.0000 -3.4854 0.6588 -22.9098 0.2867 0.7039 30.5834 15.6283 -0.0939 -10.9663 0.0000 0.0000 -0.0000 0.0000 0.0000 0.0000 -4.6892 0.3090 10.7129 -3.6074 1.2003 19.3806 0.0000 0.0000 0.0000 -16.8628 41.7693 -18.6128 0.0000 0.0000 0.0000 -16.1647 -0.8561 0.9992 -55.3493 -12.0638 24.1125 -10.4065 -82.2367 -10.5836 27.5655 -1.8347 -1.7223 0.0000 0.0000 0.0000 10.4546 1.1098 0.8181 58.7496 1.7527 16.6930 176.0904 83.4149 176.1422 -17.6649 4.8397 -1.5276 0.0000 0.0000 0.0000 6.2608 6.1581 -9.5308 3.2988 3.1916 36.6139 -15.8433 -0.8036 -17.8783 -0.0000 0.0000 -0.0000
-9.0482 37.7801 18.3404 -179.5920 62.5836 179.6200 0.0000 0.0000 0.0000 -2.8628 1.7672 -22.1793 1.1089 1.6853 33.0048 14.7902 0.0155 -11.8064 0.0000 0.0000 -0.0000 0.0000 0.0000 0.0000 -4.9340 0.1620 9.8980 -3.1285 0.8865 20.3225 0.0000 0.0000 0.0000 -16.9704 43.5241 -17.6290 0.0000 0.0000 0.0000 -17.0554 -1.2555 1.1309 -54.0746 -14.3869 24.7268 -7.0128 -76.8372 -20.0686 29.6493 -1.3350 -1.7360 0.0000 0.0000 0.0000 10.6983 1.1173 0.8295 58.0733 3.3514 16.6234 171.2380 86.5985 169.5191 -18.1282 4.8006 -1.5635 0.0000 0.0000 0.0000 6.8054 6.1118 -7.8703 4.4068 4.0114 39.2625 -16.9780 -1.0576 -19.1888 -0.0000 0.0000 -0.0000
-8.8690 37.5201 18.1575 -178.9910 64.6194 178.0500 0.0000 0.0000 0.0000 -2.4564 3.2295 -20.8521 1.5882 2.1262 35.1118 13.3159 0.0896 -12.5092 0.0000 0.0000 -0.0000 0.0000 0.0000 0.0000 -5.1146 -0.0719 9.0079 -2.8949 0.5776 21.8445 0.0000 0.0000 0.0000 -17.3387 45.4582 -16.9204 0.0000 0.0000 0.0000 -18.7417 -2.0465 1.4041 -51.7124 -16.9942 24.2498 -6.3777 -72.9977 -29.0343 35.2182 -0.9476 -1.9644 0.0000 0.0000 0.0000 11.1755 1.0405 0.8353 57.6173 4.5370 15.6577 158.8098 88.5315 156.6687 -18.1758 4.8486 -1.5749 0.0000 0.0000 0.0000 7.0443 6.2312 -5.6286 5.6279 4.8669 41.3789 -17.9948 -1.2713 -20.1233 -0.0000 0.0000 -0.0000
-8.6679 37.4373 17.9659 -178.7280 66.0466 176.4610 0.0000 0.0000 0.0000 -2.2168 4.3074 -18.9457 1.8802 2.4044 35.8221 12.5980 0.1415 -13.0614 0.0000 0.0000 -0.0000 0.0000 0.0000 0.0000 -5.4578 -0.5127 7.8380 -2.6114 0.0183 23.4149 0.0000 0.0000 0.0000 -17.2876 47.6747 -15.5084 0.0000 0.0000 0.0000 -19.8887 -2.5858 1.6042 -50.2593 -18.8685 21.9627 -6.9622 -72.6909 -34.2661 39.3020 -0.8213 -2.1597 0.0000 0.0000 0.0000 11.3656 0.8235 0.8030 57.5060 4.6957 14.2035 161.8097 88.3985 160.5987 -17.5793 4.8100 -1.5156 0.0000 0.0000 0.0000 7.1798 6.5314 -3.1163 6.2745 5.3590 41.9765 -18.6120 -1.3410 -20.2560 -0.0000 0.0000 -0.0000
-8.4362 37.6314 17.7736 -178.8530 66.7933 175.3430 0.0000 0.0000 0.0000 -2.2359 4.3846 -16.7191 2.2677 2.9850 34.4350 12.6764 0.1111 -12.7738 0.0000 0.0000 -0.0000 0.0000 0.0000 0.0000 -6.1871 -1.1264 6.2027 -2.1451 -0.8238 24.3584 0.0000 0.0000 0.0000 -15.7684 49.9121 -11.7880 0.0000 0.0000 0.0000 -19.8523 -2.2517 1.5156 -50.8513 -20.1311 18.7031 -8.5280 -75.5020 -34.2521 38.4761 -0.5441 -2.0247 0.0000 0.0000 0.0000 11.1083 0.3864 0.7130 57.3808 3.7128 12.7190 172.2874 86.6522 172.2102 -16.3681 4.5242 -1.3688 0.0000 0.0000 0.0000 7.2484 7.0998 -0.7290 6.1412 5.5160 40.5124 -18.8111 -1.1808 -19.1543 -0.0000 0.0000 -0.0000
-8.1840 38.0844 17.5858 -179.7710 67.1833 174.5000 0.0000 0.0000 0.0000 -2.6881 3.6804 -14.5046 2.6874 3.9325 30.9773 12.7885 -0.0611 -11.1659 0.0000 0.0000 -0.0000 0.0000 0.0000 0.0000 -7.2854 -1.7009 4.1281 -1.6103 -1.6280 24.3483 0.0000 0.0000 0.0000 -12.0584 51.5896 -5.0308 0.0000 0.0000 0.0000 -19.2537 -1.2118 1.2155 -52.3877 -21.5286 16.1051 -12.3875 -79.9706 -31.1444 34.9940 0.1887 -1.6021 0.0000 0.0000 0.0000 10.6949 -0.1898 0.5950 56.7281 1.7327 11.2727 175.7852 84.2439 176.1790 -14.6275 3.9956 -1.1549 0.0000 0.0000 0.0000 7.0235 8.0713 1.1534 5.5688 5.5549 37.3707 -18.8235 -0.7550 -16.4892 -0.0000 0.0000 -0.0000
-7.9410 38.6754 17.4141 178.3730 67.5197 173.5720 0.0000 0.0000 0.0000 -3.5310 2.7990 -12.6027 2.8497 4.9307 26.2689 12.7071 -0.3588 -8.4018 0.0000 0.0000 -0.0000 0.0000 0.0000 0.0000 -8.3973 -2.1459 1.9186 -1.3793 -2.0833 23.4424 0.0000 0.0000 0.0000 -6.5634 52.3868 3.5340 0.0000 0.0000 0.0000 -18.6591 -0.1246 0.9153 -53.2677 -23.4258 14.6334 -23.4322 -84.5584 -21.4124 32.6389 0.8177 -1.3082 0.0000 0.0000 0.0000 10.2608 -0.6644 0.4988 55.6197 -0.9971 9.8123 177.0970 81.6729 177.5003 -12.5176 3.3324 -0.9153 0.0000 0.0000 0.0000 6.3772 9.2921 2.3407 4.8869 5.5472 33.4954 -18.8965 -0.1112 -12.4589 -0.0000 0.0000 -0.0000
-7.7365 39.2715 17.2614 176.4200 67.7972 172.8840 0.0000 0.0000 0.0000 -4.3665 1.9099 -11.1420 2.7127 5.7148 21.4074 12.6605 -0.7423 -4.8225 0.0000 0.0000 -0.0000 0.0000 0.0000 0.0000 -8.8761 -2.6247 0.0592 -1.8543 -2.2346 21.8357 0.0000 0.0000 0.0000 -0.5905 52.6539 11.6789 0.0000 0.0000 0.0000 -17.7739 0.7388 0.6753 -53.2513 -25.5848 13.6957 -69.9356 -87.7086 25.1112 31.2552 0.8821 -1.2346 0.0000 0.0000 0.0000 9.5830 -0.9211 0.4380 54.5185 -3.9191 8.6069 177.7782 79.0910 178.1066 -10.5603 2.6912 -0.7127 0.0000 0.0000 0.0000 5.5803 10.2294 3.0081 4.3129 5.5919 29.6249 -19.1663 0.6307 -7.8860 -0.0000 0.0000 -0.0000
-7.5833 39.7700 17.1181 175.2640 67.8814 172.8390 0.0000 0.0000 0.0000 -4.7897 0.4714 -10.0921 2.5004 6.6819 17.3395 12.5922 -1.1505 -0.9693 0.0000 0.0000 -0.0000 0.0000 0.0000 0.0000 -8.4675 -3.2662 -1.0288 -3.0330 -2.3635 19.7538 0.0000 0.0000 0.0000 4.6822 52.9091 17.9659 0.0000 0.0000 0.0000 -16.2021 1.6165 0.4344 -53.0522 -27.7134 12.8841 -139.7169 -86.7358 96.3912 29.1334 0.7927 -1.1709 0.0000 0.0000 0.0000 8.5000 -1.0803 0.3876 53.5302 -6.2398 8.0001 178.0978 76.8524 178.0834 -9.3254 2.2329 -0.5929 0.0000 0.0000 0.0000 4.9028 10.3843 3.5419 4.0676 6.0169 26.1092 -19.5817 1.3105 -3.8818 -0.0000 0.0000 -0.0000
